/* XPM */
static char *e547e9f4833d4a0aa358abf1ba0c44ad[] = {
/* columns rows colors chars-per-pixel */
"48 48 248 2 ",
"   c #0C0B0C",
".  c #080605",
"X  c #130A07",
"o  c #1C130C",
"O  c #14100A",
"+  c #0F0F11",
"@  c #0D1313",
"#  c #141314",
"$  c #1B1513",
"%  c #1C1B1C",
"&  c #191818",
"*  c #0F110E",
"=  c #27160B",
"-  c #221A14",
";  c #231D1A",
":  c #2A1D1C",
">  c #2A1715",
",  c #341C14",
"<  c #240A06",
"1  c #1E201D",
"2  c #25221B",
"3  c #2B241C",
"4  c #2A281A",
"5  c #37261B",
"6  c #1D1E20",
"7  c #261D23",
"8  c #3B1E30",
"9  c #1F2022",
"0  c #2C2524",
"q  c #2C2924",
"w  c #2D2D2C",
"e  c #282425",
"r  c #332523",
"t  c #332C25",
"y  c #352D2B",
"u  c #3B2A28",
"i  c #35322E",
"p  c #3B332C",
"a  c #3A3628",
"s  c #342C32",
"d  c #353333",
"f  c #3C3433",
"g  c #3C3938",
"h  c #2C2B33",
"j  c #44261A",
"k  c #53251D",
"l  c #472925",
"z  c #592B27",
"x  c #46342A",
"c  c #58352C",
"v  c #4C3B32",
"b  c #443C3C",
"n  c #463B36",
"m  c #583834",
"M  c #48293B",
"N  c #66382E",
"B  c #673A37",
"V  c #773D3A",
"C  c #612A2A",
"Z  c #481F1B",
"A  c #3E413A",
"S  c #46433C",
"D  c #4C433B",
"F  c #4B4237",
"G  c #53443C",
"H  c #5B443C",
"J  c #544737",
"K  c #69443A",
"L  c #75463A",
"P  c #453E42",
"I  c #482F45",
"U  c #4B4343",
"Y  c #4C4A45",
"T  c #494747",
"R  c #534D4A",
"E  c #554A44",
"W  c #56534C",
"Q  c #5C5A55",
"!  c #5C5D5A",
"~  c #575653",
"^  c #674A44",
"/  c #734C45",
"(  c #764A47",
")  c #685349",
"_  c #7B524C",
"`  c #78554A",
"'  c #665A54",
"]  c #7B5754",
"[  c #684E56",
"{  c #5E625C",
"}  c #64625C",
"|  c #69625B",
" . c #76665A",
".. c #696765",
"X. c #746C64",
"o. c #786A66",
"O. c #74726D",
"+. c #767366",
"@. c #7A7672",
"#. c #7B7A77",
"$. c #6E716C",
"%. c #813333",
"&. c #854B46",
"*. c #88564C",
"=. c #855A54",
"-. c #95574F",
";. c #876359",
":. c #996859",
">. c #A46F5A",
",. c #816E64",
"<. c #8B6965",
"1. c #976C65",
"2. c #8A7469",
"3. c #98766B",
"4. c #8D7D74",
"5. c #867975",
"6. c #977B75",
"7. c #A87967",
"8. c #B5786B",
"9. c #A77B77",
"0. c #B67973",
"q. c #A86A6A",
"w. c #9C5D5D",
"e. c #C17870",
"r. c #8D857B",
"t. c #878278",
"y. c #97857B",
"u. c #BA836A",
"i. c #A68376",
"p. c #BA8677",
"a. c #C38B75",
"s. c #C58F7D",
"d. c #CB947C",
"f. c #C6907A",
"g. c #A47D84",
"h. c #8A8A85",
"j. c #968C86",
"k. c #99948A",
"l. c #9C9896",
"z. c #998F90",
"x. c #A88B84",
"c. c #B98783",
"v. c #A4948A",
"b. c #B79688",
"n. c #AB9B92",
"m. c #A49A95",
"M. c #B99B93",
"N. c #B58A9B",
"B. c #ADA39A",
"V. c #A5A29A",
"C. c #B8A699",
"Z. c #B095A0",
"A. c #ABA6A4",
"S. c #BAACA3",
"D. c #B4AAA5",
"F. c #B9B3A9",
"G. c #B9B7B6",
"H. c #AEAEB4",
"J. c #9E9E9F",
"K. c #C88983",
"L. c #CA9785",
"P. c #D39B88",
"I. c #C69892",
"U. c #D79994",
"Y. c #D88A8A",
"T. c #D3A28E",
"R. c #DAA28B",
"E. c #CAA79A",
"W. c #D4A592",
"Q. c #DCAB99",
"!. c #D7A798",
"~. c #D3B29E",
"^. c #E2AB9B",
"/. c #E2A797",
"(. c #ECB29E",
"). c #C69CA8",
"_. c #C5ADA2",
"`. c #C2A6A6",
"'. c #D5ACA7",
"]. c #C3B2A4",
"[. c #C3B4AB",
"{. c #CAB6AA",
"}. c #C4B9AD",
"|. c #CBBAAD",
" X c #CBB3A6",
".X c #D9B7A9",
"XX c #C4BBB4",
"oX c #CCBDB3",
"OX c #CBBEBB",
"+X c #C4BAB9",
"@X c #D7BBB5",
"#X c #C7ACB1",
"$X c #E4ACA4",
"%X c #E6B6A8",
"&X c #E6B9B4",
"*X c #F5BAB4",
"=X c #F5B2AA",
"-X c #E19F8F",
";X c #BFC0B2",
":X c #CEC1B5",
">X c #C4C2BD",
",X c #CDC4BB",
"<X c #C7C5B7",
"1X c #D2C2B5",
"2X c #D3C5BA",
"3X c #DBC5BA",
"4X c #D5C8BD",
"5X c #DACABC",
"6X c #DDC4B6",
"7X c #E6C5BA",
"8X c #F9C6BB",
"9X c #E7C0AF",
"0X c #BCBBC5",
"qX c #C2BEC5",
"wX c #C2BDD2",
"eX c #C3C2CA",
"rX c #CBC4CC",
"tX c #CAC5C4",
"yX c #D5CBC2",
"uX c #DACCC2",
"iX c #D3CCCA",
"pX c #D9C8C7",
"aX c #DCD1C8",
"sX c #C9C9D3",
"dX c #DAD5D8",
"fX c #D5CCD7",
"gX c #E3CAC5",
"hX c #E6D4CC",
"jX c #E9D6D2",
"kX c #F4DED9",
"lX c #F2D8D3",
"zX c #F4CEC8",
"xX c #DCDAE2",
"cX c #DBD8E5",
"vX c #E4DEE5",
"bX c #E6E2EA",
"nX c #EBE4E9",
"mX c #F9E8E5",
"MX c #ECE9F3",
"NX c #F3EDF4",
"BX c #F4EDF9",
"VX c #FDF4F4",
"CX c #F5F3FC",
"ZX c #FBF6FC",
"AX c #FEFAFD",
"SX c #FAF6F6",
"DX c #F9F1F3",
"FX c #EDE3E6",
/* pixels */
":XoX4XhXaXyXyXyXyX,X,X,X,X,X:X:XD.<XF.j.R q f r t p J r.C.{.{.C.B.D.F.[.{._.C. X].].].<X].[.E._.",
"4X2XyXaXyX<XyXyXyXyX,X,X,X4X,X:XF.<X,X .y ' ' ~ 5.k.n.j.2.,.2.y.n.<XoX#X_.{.:X].S. XC.}.}.{.].{.",
"4X4X5XaX4XyXiXyXyXyXyX,X,X,X:X:XoXoX:Xm.j.M.S.S.j.X.G u 4 = = = j ) y.~.{.b.n.].C.<XF.S.XX[.C.~.",
":X2X5XuXaXyXiX4X,X,X,X:X:X|.}.{.{.[.XX].S.OX`.' l < < , c K J K 5 j j ` y.3.y.i.t.v.V.C.C.C.n.C.",
"|.1X2X3X4X4X<X:XoXoXoXoX:X:X|.|.2X3X1XS.[.n.K = > 5 m ^ ;.y.3.3.1.3.` c j j 5 = 4 4 4 2 4 G r.C.",
"{.|.1X1X2X1X:X2X4XyX4X4X3X5X1X1X}.OXF.}.n.x X j l c ` 1.b.9X%X%X9X8X9Xi.K 5 5 x a 4 g f a D r.C.",
"{.1XoX2X4XoXXX4X4X4X2X1X1X5X2X1X,X;X<XF.v X j l N _ q.'.*X*X8XzX%X~.7X7XM.) o o $ & 1 4 p F 4.].",
"{.1X2X4X4X}.S.}.[.F.S.S.{.1X5X4X<X<X;XE X 5 x m ;.c.`.&X&X$X&X'.E.I.7X9X@Xn.b 7 1 & # # p F ;.S.",
"1X4X5XuX4X}.S.D.y.r.r.y.k.n.C.n.B.<XX.- - x ) <.i..XE.'..X*XgXzX&X#X7XgXjXgXA...! ~ 6 w a x 2.].",
"uX5XC.r.o.X.W u n F W  .2.j.j.y.r.t.a = x ` ;.y.M.M.zXzXgXgX&XqXzXkXqXlXdX#Xl.J.0XG.$.& F J 2.E.",
"n.| p 3 : o - q - - 3 r x E  .o.,.) = j J ;.;.i.x.{.gXn.5.' P [ o.wXgXmX[ 7 8 s 9 P J.Q 4 x 2.:X",
"r - = 3 r ; o $ 2 2 - - $ - - r  .K 5 c H ` ] 6.b.2Xy.o.E g P 8 8 g.).gX[ : M e g 6 z.@.a J ;.{.",
"- q q ; $ & # X . . X # - $ - r ' x l B ` ;.<.2.g.lX5.[ P 0 g s 8 ).gXqX).8 > u I e g.$.p x 4.oX",
": ; $ & $ . .     O     + X $ y ' v v ^ ;.<.<.=.<.#X6.8 M s 7 8 ^ '.'.@XzX1.< > % 7 z.T r E r.}.",
"; % $   .   +   . + + + & # ; b ~ D n ) ] 5.=.=.1.<.g.[ 8 8 I I g.&XI.I.`.'.1.<.5.j.J.s u R X.pX",
"#     .   + + + + % & # & # e R | E v ' 2.M.g.6.g.m =.).N.N.N.Z.M.K.w.z V *.c.9.x.2.M s s b k.+X",
"  @   . + . & & @ 6 @ @ # % e Y ..' v ) g.g.o.3.B l m w.q.q.g.).P.7.*.1.&.V d.(.p. .t g d n j.,X",
"@ . @ 9 % & # & 9 & h T h 9 7 A | 4.m B g.<.I l l ^ V ( 0.$X*X8X%XU.Y.%X^.P.=X(.8Xp.x p d U 4.].",
"  @ 6 @ s d h g & h h.0XA e h d ' oX6.g.q.B Z B ( ;.:.p.=X%X$X*X$X=X$X$XU.L.-X-X%Xb.v y f U 4.oX",
"6 6 @ 7 R g l.$.A #.! h.{ U k.k.2.7X1.*.e.B C w.w.;.0.s.s.U./.U.!.Y.0.-.%.%.-.8.W.b.H r y n ,.@X",
"P @   6 { Q h.j.H.l.~ $.A.;XeXk.j.3.V V &.&.-.&.;.;.>.u.>.L.(.R.K.p.0.0.s.f.e.a./.M.G r f b  . X",
"{ A d g A.;X$.H.eXl.J.sXtXV.sXyX].i.9.$X%.q.e.&.>.:.7.i.u.u.d././.P.a.0.8.8.e.a.$Xb.v : x E ,.|.",
"R W e 5.>XiXiX;XA.;XxX;XV.V.l.V.|. X!.U.Y.e.w.-.*.>.u.u.u.u.a.R./.^.U.U.e.p.P./.%XM.H 3 s n  .].",
"} Y S z.<XiXiXiXsXG.h.h.$.$.l.;XhX5XE.K.=X=XY.-.L ;.i.u.d.f.a.f.T.$X*X8XzX8X8X%X.Xb.G r s n ) C.",
"Q W o.A.+XiXpX+XtX<X{ ..<XG.#.V.D.:X.X'.K.Y.$X:.K L 7.u.u.d.a.f.p.L.E.'.%X$XQ.T.p.2.F w a A K C.",
"! ! @.G.OXtXtXD.V.$.>XtXh.J.r.r.k.XXgX'.c.V B z c K *.:.1.p.u.0.7.:.1.6.9.3.:.;. .J a w A F Q S.",
"Q W ..D.+XXXG.5.Y T ~ t.Y { F...{ m.2X@XN.m m m c K L &.-.-.-.*.*.L ^ / / L K L L J g w i A E C.",
"' ~ ..D.+XtXtX@.W Y 1 Y #.Y $.O.F t.[.oXv.m  .H x c L *.*.*.=.=.` ` / / / L ` =.) x i w w S J n.",
"W ~ $.A.G.XXiX#.{ Y d g h.U p f Q <X5X5Xn.v y. .x M B &.&.&.=.*._ =.=.] ] ] =.=.) F i i s Y v x.",
"{ { #.G.OX>XdXr.Y $.A e 5.Y R o ' 5X:X:XB.a t.r.H z z B ( ( / ^ ( _ =.] =.=.=._ ` H d d d Y v v.",
"{ Y $.D.tXG.iXj...#.} w $.R b u  .5X{.|.B.F +.h.' c z C B / / ` ( =.=.] _ _ &._ K ^ y w s U G C.",
"{ ~ #.G.iX;XaXG.V.V...e ! } U G 2.@X5XuXk.S +.j.,.B N C z N c ^ ( ( ^ B m z c ^ ( ,.P b b P b D.",
"{ ~ h.V.y.V.B.<XC.t.U 0 R 5.r p  .5X1X<XB.S O.4.<.K *.8.*.N N z B ) B z c k k ` ` ~.@X[.z.@...H.",
"! ~ A 4 a J +.<Xk.X.U g P O.a -  .6X5X4XA.E X.y.*.L >.d.R.d.:.K m B ( ^ z K *.L ;.E.@XDXAXZXcXMX",
"Y { S a +.t.t.<XF.X.T f n O.Y 3  .6X1XXXB.Q ) ^ 3.>.>.u.d.^.Q.p.<.K B K L 3.u.*.p.E.C.5XSXAXCXMX",
"{ W Q W +.+.Q ' } t e w y | W t  .1X1XuXD.g v ` p.f.u.u.d.d.Q.9XU.c.:.:.:.>.:.7.~.~.M.C.mXSXAXCX",
"d 1 q 2 4 4 4 4 - $ q i s Y S a ] 7X:X2XB.[ y._.~.~.d.d.d.d.R.~.%X$XW.L.f.>.>.d.L.L.E.x.mXAXSXDX",
"i w 4 4 t t O 4 ; y y 0 0 q t p E uX,XtXaXhXkX X~.(.Q.d.R.R.R.~.!.W.R.R.P.a.a.T.~.E..Xx.kXAXSXAX",
"A A A F D Q F F G | ' E D Y X.4.v.pXOXpXvXVXVXmX5X9X%X~.Q.T.T.d.W.W.^.Q.a.p.L.T.Q.E.6X|.hXAXSXAX",
"k.l.B.D.m.<XC.B.B.4XXXj.' ' m.iXOXpXdXnXZXAXDXVXmX9X9X9X~.(.~.~.W.P.W.!.W.P.T.~..X.X2XkXjXAXAXSX",
"4XuXhXaX2X}.<X2X:XaXhXS.t.k.|.:X+XdXBXBXBXZXZXAXVXmX7X6X6X9X.X.X.XQ.~.%X.XW.E..X9X5XjXDXkXAXSXAX",
"uX5X4X2XoX|.4XhX5X}.5X1Xn.S.aX,XxXNXZXZXZXAXAXAXVXAXAXlX1X5XgX3X6X7X7X6X.X6X7XzXhXkXkXVXvXAXCXCX",
"2X3XgXhXhXyX4X4X1X5X5X<X{.@XpXdXMXBXZXCXCXAXAXZXAXVXVXAXDXhXhXmXmXkXlXlXlXlXkXmXmXVXVXAXbXAXCXCX",
"].C.y.4.o.o.5.r.n.F.<X1XjXpXqXNXBXCXZXCXCXAXAXZXAXSXSXAXAXVXmXkXAXVXVXAXVXDXVXSXVXAXAXnXbXCXCXMX",
"5 5 5 4 : : q t 4 f E X.m.fXmXMXBXBXZXCXCXAXAXCXNXAXAXCXCXAXSXvXkXZXAXAXAXSXAXSXSXNXCXdXMXMXAXMX",
"t 5 3 2 $ $ - ; 4 2 2 S l.cXBXcXMXBXBXCXCXMXCXCXCXCXCXCXCXMXNXNXdXdXMXNXCXMXMXnXNXbXMXsXMXMXCXMX",
"o X O X   + * # 2 * e h.cXcXfXbXvXvXnXnXbXvXcXbXbXcXcXcXbXbXbXjXcXeXrXxXMXcXxXcXdXdXdXeXxXdXxXxX",
"X . . . .       * & ..G.wX0XwXwXwXrXrXrXtXtXsXsXsXsXsXsXsXeXrXrXsX0X0XG.0XeXeXeX0XeX0XG.eXsX>XeX"
};
